<svg width="28" height="28" viewBox="0 0 28 28" fill="none" xmlns="http://www.w3.org/2000/svg">
<path d="M14.15 27.7502C6.65 27.7502 0.5 21.6502 0.5 14.1002C0.5 6.60019 6.6 0.450195 14.15 0.450195C21.65 0.450195 27.8 6.55019 27.8 14.1002C27.8 21.6502 21.7 27.7502 14.15 27.7502Z" fill="#4B76A5"/>
<path d="M21.5444 18.8C21.4944 18.7 21.1944 18.1 19.8444 16.8C18.3944 15.45 18.5944 15.7 20.3444 13.35C21.3944 11.95 21.8444 11.1 21.6944 10.7C21.5444 10.35 20.7944 10.45 20.7944 10.45H18.1944C18.1944 10.45 17.9944 10.4 17.8444 10.5C17.6944 10.6 17.5944 10.8 17.5944 10.8C17.5944 10.8 17.1944 11.9 16.6444 12.8C15.4944 14.75 15.0444 14.85 14.8444 14.75C14.3944 14.45 14.4944 13.6 14.4944 13C14.4944 11.1 14.7944 10.3 13.9444 10.1C13.6444 10.05 13.4444 10 12.7444 10C11.8444 10 11.0444 10 10.5944 10.2C10.2944 10.35 10.0944 10.65 10.1944 10.7C10.3444 10.7 10.7444 10.8 10.9444 11.1C11.1944 11.45 11.1944 12.25 11.1944 12.25C11.1944 12.25 11.3444 14.5 10.8444 14.75C10.4944 14.95 9.99444 14.55 8.99444 12.8C8.49444 11.95 8.09444 10.9 8.09444 10.9C8.09444 10.9 7.99444 10.7 7.89444 10.6C7.74444 10.5 7.49444 10.45 7.49444 10.45H5.04444C5.04444 10.45 4.69444 10.45 4.54444 10.6C4.44444 10.75 4.54444 11.05 4.54444 11.05C4.54444 11.05 6.49444 15.55 8.64444 17.85C10.6444 19.95 12.8944 19.8 12.8944 19.8H13.9444C13.9444 19.8 14.2444 19.75 14.3944 19.6C14.5444 19.45 14.5444 19.15 14.5444 19.15C14.5444 19.15 14.5444 17.75 15.1444 17.55C15.7944 17.35 16.5944 18.9 17.4444 19.5C18.0944 19.95 18.5944 19.85 18.5944 19.85L20.8944 19.8C20.8944 19.8 22.1444 19.75 21.5444 18.8Z" fill="white"/>
</svg>
