<svg width="133" height="36" viewBox="0 0 133 36" fill="none" xmlns="http://www.w3.org/2000/svg">
<path d="M52.1295 1.30909C52.1295 1.47273 52.1619 1.63637 52.1619 1.76728C52.1619 9.98182 52.1619 18.1964 52.1619 26.4436C52.1619 26.6073 52.1619 26.7709 52.1619 27C51.9673 27 51.7727 27 51.6105 27C41.2949 27 30.9793 27 20.6636 27C20.3393 27 20.1446 27.0982 19.9175 27.2945C17.1278 30.0764 14.338 32.8582 11.5483 35.64C11.451 35.7382 11.3212 35.8364 11.159 36C11.159 29.6509 11.159 23.3673 11.159 17.0182C11.2888 17.0182 11.451 17.0182 11.5807 17.0182C12.7161 17.0182 13.8839 17.0836 14.9868 16.9527C17.5819 16.6255 19.3661 14.8255 19.7878 12.1745C20.0149 10.7345 19.9175 9.29455 19.2688 7.95273C18.3605 6.08728 16.8358 5.00728 14.7922 4.90909C12.2944 4.81091 9.76413 4.87637 7.23389 4.84364C7.16901 4.84364 7.0717 4.84364 6.97438 4.87637C6.97438 12.2073 6.97438 19.5709 6.97438 26.9673C5.09291 26.9673 3.21145 26.9673 1.36243 26.9673C1.36243 18.3927 1.36243 9.85091 1.36243 1.27637C18.2956 1.30909 35.2288 1.30909 52.1295 1.30909ZM39.2836 22.8764C39.6729 22.8109 40.4839 22.7455 41.2624 22.5164C43.6954 21.7636 45.3822 20.1927 45.9012 17.6073C46.3878 15.0545 45.7066 12.8291 43.6305 11.16C41.0678 9.09819 37.0129 9.03273 34.3529 10.9964C31.401 13.1236 30.8171 17.4764 33.0878 20.2909C34.58 22.1236 36.5912 22.8109 39.2836 22.8764ZM22.0261 22.5164C23.3885 22.5164 24.7185 22.5164 26.081 22.5164C26.081 22.32 26.081 22.1564 26.081 21.9927C26.1134 20.2909 26.0485 18.5891 26.1458 16.8873C26.2432 15.1527 27.2812 14.0073 28.9356 13.7455C29.4222 13.68 29.9412 13.7455 30.4602 13.7455C30.4602 12.3709 30.4602 11.0618 30.4602 9.65455C30.0385 9.68728 29.6168 9.68728 29.2276 9.78546C27.7354 10.1455 26.7622 11.1273 26.1783 12.5673C26.1134 12.6982 26.0485 12.7964 25.9836 12.9273C25.9512 12.9273 25.9188 12.8945 25.8863 12.8945C25.8863 11.9127 25.8863 10.9636 25.8863 9.94909C24.5888 9.94909 23.2912 9.94909 21.9936 9.94909C22.0261 14.1055 22.0261 18.2945 22.0261 22.5164Z" fill="#3663E0"/>
<path d="M132.092 20.88C129.853 22.8436 127.258 23.4 124.436 22.68C121.322 21.8945 119.343 19.1454 119.505 15.9382C119.668 12.6654 121.906 10.1454 125.117 9.65453C126.999 9.35998 128.815 9.55635 130.502 10.5054C130.924 10.7673 131.313 11.0945 131.735 11.4218C131.119 12.4363 130.502 13.3854 129.951 14.2691C129.302 13.9418 128.718 13.5818 128.069 13.32C127.42 13.0582 126.707 13.0582 125.993 13.2218C124.598 13.5818 123.755 14.8254 123.82 16.3636C123.885 17.8363 124.923 19.08 126.318 19.3091C127.777 19.5709 128.978 18.9491 130.113 18.1309C130.243 18.0327 130.34 17.9345 130.502 17.8363C131.021 18.8509 131.54 19.8 132.059 20.7818C132.092 20.8145 132.092 20.8473 132.092 20.88Z" fill="#3663E0"/>
<path d="M87.5854 22.6474C87.5854 22.1237 87.5854 21.6656 87.5854 21.1092C87.4556 21.2401 87.3583 21.3383 87.261 21.4365C85.7688 23.1056 83.0115 23.4328 81.2273 22.1892C79.2485 20.8474 78.8917 17.5092 81.2922 15.9383C82.4925 15.1856 83.8225 14.8583 85.1849 14.7274C85.8337 14.6619 86.4825 14.6292 87.1312 14.5965C87.2934 13.8765 86.9042 13.2547 86.1581 13.091C84.9903 12.7965 83.8873 13.1565 82.8493 13.6474C82.5249 13.811 82.2005 14.0074 81.8437 14.2038C81.3571 13.1892 80.8705 12.2074 80.3515 11.1928C81.3895 10.4401 82.5249 10.0147 83.7251 9.75284C85.2822 9.42557 86.8393 9.36011 88.3639 9.94921C90.2454 10.6692 91.3483 12.1092 91.4132 14.1056C91.5105 16.8874 91.4456 19.7019 91.4456 22.5165C91.4456 22.5492 91.4132 22.5819 91.4132 22.6474C90.1805 22.6474 88.8829 22.6474 87.5854 22.6474ZM87.2286 17.1492C86.45 17.0183 85.2173 17.2147 84.601 17.5419C83.9846 17.8692 83.7251 18.3928 83.9198 18.9819C84.082 19.5056 84.6659 19.8001 85.3147 19.7019C86.4825 19.5383 87.3259 18.4256 87.2286 17.1492Z" fill="#3663E0"/>
<path d="M60.2392 8.57466C58.4227 8.57466 56.6385 8.57466 54.8544 8.57466C54.8544 7.33102 54.8544 6.08739 54.8544 4.84375C59.8824 4.84375 64.878 4.84375 69.9061 4.84375C69.9061 6.08739 69.9061 7.2983 69.9061 8.54193C68.1219 8.54193 66.3702 8.54193 64.5536 8.54193C64.5536 13.2874 64.5536 17.9347 64.5536 22.6474C63.0939 22.6474 61.699 22.6474 60.2392 22.6474C60.2392 17.9674 60.2392 13.2874 60.2392 8.57466Z" fill="#3663E0"/>
<path d="M95.0139 22.6473C95.0139 19.571 95.0139 16.4946 95.0139 13.4182C94.4949 13.4182 94.0083 13.4182 93.4893 13.4182C93.4893 12.2728 93.4893 11.1928 93.4893 10.0473C93.9758 10.0473 94.4624 10.0473 95.0463 10.0473C95.0463 9.65461 95.0139 9.26189 95.0463 8.90189C95.241 6.97098 96.3114 5.72734 98.128 5.13825C99.4256 4.71279 100.756 4.64734 102.15 4.81098C102.15 6.02189 102.15 7.20007 102.15 8.37825C101.631 8.41098 101.145 8.41098 100.658 8.47643C100.366 8.50916 100.042 8.64007 99.7824 8.77098C99.3283 9.03279 99.2958 9.49098 99.3283 10.0146C100.074 10.0146 100.853 10.0146 101.631 10.0146C101.631 11.1601 101.631 12.2728 101.631 13.3855C100.853 13.3855 100.107 13.3855 99.3283 13.3855C99.3283 16.4946 99.3283 19.5382 99.3283 22.6146C97.901 22.6473 96.4736 22.6473 95.0139 22.6473Z" fill="#3663E0"/>
<path d="M111.623 4.77808C111.623 6.02171 111.623 7.19989 111.623 8.34535C111.006 8.4108 110.422 8.4108 109.839 8.54171C108.995 8.70535 108.768 9.1308 108.833 10.0144C109.579 10.0144 110.358 10.0144 111.136 10.0144C111.136 11.1599 111.136 12.2726 111.136 13.4181C110.39 13.4181 109.611 13.4181 108.833 13.4181C108.833 16.5272 108.833 19.5708 108.833 22.6472C107.406 22.6472 105.978 22.6472 104.551 22.6472C104.551 19.5708 104.551 16.5272 104.551 13.4181C104 13.4181 103.513 13.4181 102.994 13.4181C102.994 12.2726 102.994 11.1926 102.994 10.0472C103.48 10.0472 104 10.0472 104.551 10.0472C104.551 9.81808 104.551 9.62171 104.551 9.45808C104.616 7.10171 105.621 5.79262 107.86 5.07262C109.028 4.67989 110.293 4.64717 111.623 4.77808Z" fill="#3663E0"/>
<path d="M70.1332 9.81814C71.4956 9.81814 72.8256 9.81814 74.1881 9.81814C74.1881 10.8 74.1881 11.749 74.1881 12.7309C75.0639 10.7018 76.4588 9.49086 78.7295 9.58904C78.7295 11.0618 78.7295 12.4363 78.7295 13.8436C78.2105 13.8436 77.6915 13.7781 77.2049 13.8436C75.6478 14.0727 74.6098 15.0872 74.48 16.6909C74.3503 18.1636 74.4151 19.669 74.3827 21.1745C74.3827 21.6654 74.3827 22.1236 74.3827 22.6472C72.9554 22.6472 71.5605 22.6472 70.1332 22.6472C70.1332 18.3927 70.1332 14.1054 70.1332 9.81814Z" fill="#3663E0"/>
<path d="M117.332 22.6472C115.905 22.6472 114.51 22.6472 113.082 22.6472C113.082 18.3599 113.082 14.1054 113.082 9.81812C114.51 9.81812 115.905 9.81812 117.332 9.81812C117.332 14.1054 117.332 18.3599 117.332 22.6472Z" fill="#3663E0"/>
<path d="M11.1266 13.4835C11.1266 11.7817 11.1266 10.1453 11.1266 8.47625C11.2239 8.47625 11.3212 8.44352 11.4185 8.44352C12.0024 8.44352 12.6188 8.47625 13.2027 8.44352C14.9868 8.37806 15.7329 9.55625 15.6681 11.0944C15.6032 12.6326 14.7273 13.4835 13.2027 13.4835C12.5215 13.4835 11.8402 13.4835 11.1266 13.4835Z" fill="#3663E0"/>
<path d="M117.267 8.14921C115.872 8.14921 114.51 8.14921 113.115 8.14921C113.115 7.03648 113.115 5.95648 113.115 4.84375C114.51 4.84375 115.872 4.84375 117.267 4.84375C117.267 5.95648 117.267 7.03648 117.267 8.14921Z" fill="#3663E0"/>
<path d="M41.8788 16.2328C41.8464 14.9892 41.3922 13.9419 40.2244 13.3201C38.862 12.6001 37.2076 13.0582 36.3966 14.3346C35.4883 15.7746 35.7803 17.8364 37.0129 18.7855C37.9861 19.5382 39.089 19.6364 40.192 19.1128C41.3922 18.5564 41.8464 17.5092 41.8788 16.2328Z" fill="#3663E0"/>
<path d="M41.8788 16.2328C41.8463 17.5091 41.3922 18.5564 40.2244 19.1455C39.1214 19.7019 38.0185 19.571 37.0454 18.8182C35.8127 17.8691 35.5207 15.7746 36.429 14.3673C37.24 13.091 38.8944 12.6328 40.2568 13.3528C41.3922 13.9419 41.8139 14.9891 41.8788 16.2328Z" fill="#3663E0"/>
</svg>
