<svg width="51" height="35" viewBox="0 0 51 35" fill="none" xmlns="http://www.w3.org/2000/svg">
<path d="M50.7671 0.309094C50.7671 0.472731 50.7995 0.636367 50.7995 0.767276C50.7995 8.98182 50.7995 17.1964 50.7995 25.4436C50.7995 25.6073 50.7995 25.7709 50.7995 26C50.6049 26 50.4102 26 50.2481 26C39.9324 26 29.6168 26 19.3012 26C18.9768 26 18.7822 26.0982 18.5551 26.2946C15.7654 29.0764 12.9756 31.8582 10.1859 34.64C10.0885 34.7382 9.95878 34.8364 9.79659 35C9.79659 28.6509 9.79659 22.3673 9.79659 16.0182C9.92634 16.0182 10.0885 16.0182 10.2183 16.0182C11.3537 16.0182 12.5215 16.0836 13.6244 15.9527C16.2195 15.6255 18.0037 13.8255 18.4254 11.1745C18.6524 9.73455 18.5551 8.29455 17.9063 6.95273C16.9981 5.08728 15.4734 4.00728 13.4298 3.90909C10.932 3.81091 8.40171 3.87637 5.87146 3.84364C5.80659 3.84364 5.70927 3.84364 5.61195 3.87637C5.61195 11.2073 5.61195 18.5709 5.61195 25.9673C3.73049 25.9673 1.84902 25.9673 0 25.9673C0 17.3927 0 8.85091 0 0.276367C16.9332 0.309094 33.8663 0.309094 50.7671 0.309094ZM37.9212 21.8764C38.3105 21.8109 39.1215 21.7455 39.9 21.5164C42.3329 20.7636 44.0198 19.1927 44.5388 16.6073C45.0254 14.0545 44.3441 11.8291 42.2681 10.16C39.7054 8.09819 35.6505 8.03273 32.9905 9.99637C30.0385 12.1236 29.4546 16.4764 31.7254 19.2909C33.2176 21.1236 35.2288 21.8109 37.9212 21.8764ZM20.6637 21.5164C22.0261 21.5164 23.3561 21.5164 24.7185 21.5164C24.7185 21.32 24.7185 21.1564 24.7185 20.9927C24.751 19.2909 24.6861 17.5891 24.7834 15.8873C24.8807 14.1527 25.9188 13.0073 27.5732 12.7455C28.0598 12.68 28.5788 12.7455 29.0978 12.7455C29.0978 11.3709 29.0978 10.0618 29.0978 8.65455C28.6761 8.68728 28.2544 8.68728 27.8651 8.78546C26.3729 9.14546 25.3998 10.1273 24.8159 11.5673C24.751 11.6982 24.6861 11.7964 24.6212 11.9273C24.5888 11.9273 24.5563 11.8945 24.5239 11.8945C24.5239 10.9127 24.5239 9.96364 24.5239 8.94909C23.2263 8.94909 21.9288 8.94909 20.6312 8.94909C20.6637 13.1055 20.6637 17.2946 20.6637 21.5164Z" fill="#3663E0"/>
<path d="M9.76416 12.4835C9.76416 10.7817 9.76416 9.14534 9.76416 7.47625C9.86148 7.47625 9.95879 7.44352 10.0561 7.44352C10.64 7.44352 11.2564 7.47625 11.8403 7.44352C13.6244 7.37806 14.3705 8.55625 14.3056 10.0944C14.2407 11.6326 13.3649 12.4835 11.8403 12.4835C11.159 12.4835 10.4778 12.4835 9.76416 12.4835Z" fill="#3663E0"/>
<path d="M40.5161 15.2328C40.4837 13.9892 40.0295 12.9419 38.8617 12.3201C37.4993 11.6001 35.8449 12.0582 35.0339 13.3346C34.1256 14.7746 34.4176 16.8364 35.6503 17.7855C36.6234 18.5382 37.7264 18.6364 38.8293 18.1128C40.0295 17.5564 40.4837 16.5092 40.5161 15.2328Z" fill="#3663E0"/>
<path d="M40.5164 15.2328C40.484 16.5091 40.0298 17.5564 38.862 18.1455C37.7591 18.7019 36.6562 18.571 35.683 17.8182C34.4503 16.8691 34.1584 14.7746 35.0666 13.3673C35.8776 12.091 37.532 11.6328 38.8944 12.3528C40.0298 12.9419 40.4515 13.9891 40.5164 15.2328Z" fill="#3663E0"/>
</svg>
