<svg width="54" height="54" viewBox="0 0 54 54" fill="none" xmlns="http://www.w3.org/2000/svg">
<circle cx="27" cy="27" r="27" fill="#E7E6EC"/>
<path d="M33.9237 23.5095C33.9237 21.6309 33.2042 19.9305 32.0429 18.7008C30.8802 17.4698 29.2743 16.708 27.5001 16.708C25.7259 16.708 24.12 17.4698 22.9573 18.7008C21.7959 19.9305 21.0765 21.6309 21.0765 23.5095C21.0765 25.388 21.7959 27.0884 22.9573 28.3181C24.12 29.5492 25.7259 30.3109 27.5001 30.3109C29.2743 30.3109 30.8802 29.5492 32.0429 28.3181C32.6401 27.6873 33.1137 26.9377 33.4364 26.1125C33.7592 25.2873 33.9248 24.4027 33.9237 23.5095V23.5095ZM19.7917 37.1124C19.7917 38.4727 22.6824 39.833 27.5001 39.833C32.0197 39.833 35.2084 38.4727 35.2084 37.1124C35.2084 34.3918 32.1842 31.6712 27.5001 31.6712C22.6824 31.6712 19.7917 34.3918 19.7917 37.1124Z" fill="#8F8F8F"/>
</svg>
