<svg width="28" height="28" viewBox="0 0 28 28" fill="none" xmlns="http://www.w3.org/2000/svg">
<path d="M14.0499 27.6501C6.5499 27.6501 0.399902 21.5501 0.399902 14.0001C0.399902 6.5001 6.4999 0.350098 14.0499 0.350098C21.5499 0.350098 27.6999 6.4501 27.6999 14.0001C27.6999 21.5501 21.5999 27.6501 14.0499 27.6501Z" fill="#D8332C"/>
<path d="M22.2499 11.9502C22.2499 10.0002 20.6999 8.4502 18.7499 8.4502H9.6499C7.6999 8.4502 6.1499 10.0002 6.1499 11.9502V16.2002C6.1499 18.1502 7.6999 19.7002 9.6499 19.7002H18.7499C20.6999 19.7002 22.2499 18.1502 22.2499 16.2002V11.9502ZM16.4999 14.3002L12.8499 16.3002C12.6999 16.4002 12.5499 16.2502 12.5499 16.1002V12.0002C12.5499 11.8002 12.6999 11.7002 12.8499 11.8002L16.4999 13.9002C16.6999 13.9502 16.6499 14.2002 16.4999 14.3002Z" fill="white"/>
</svg>
