<svg width="28" height="28" viewBox="0 0 28 28" fill="none" xmlns="http://www.w3.org/2000/svg">
<path d="M14.0499 25.6496C20.6221 25.6496 25.9499 20.3218 25.9499 13.7496C25.9499 7.17742 20.6221 1.84961 14.0499 1.84961C7.47771 1.84961 2.1499 7.17742 2.1499 13.7496C2.1499 20.3218 7.47771 25.6496 14.0499 25.6496Z" fill="white"/>
<path d="M14.05 27.4498C6.6 27.4498 0.5 21.3498 0.5 13.8498C0.5 6.3498 6.6 0.299805 14.05 0.299805C21.5 0.299805 27.6 6.39981 27.6 13.8498C27.6 21.3498 21.55 27.4498 14.05 27.4498ZM18.65 8.3498C18.1 8.3498 17.65 8.7998 17.65 9.3498C17.65 9.89981 18.1 10.3498 18.65 10.3498C19.2 10.3498 19.65 9.89981 19.65 9.3498C19.65 8.7998 19.2 8.3498 18.65 8.3498ZM14.15 9.6498C11.85 9.6498 9.95 11.5498 9.95 13.8498C9.95 16.1498 11.85 18.0498 14.15 18.0498C16.45 18.0498 18.35 16.1498 18.35 13.8498C18.35 11.5498 16.5 9.6498 14.15 9.6498ZM14.15 16.5498C12.65 16.5498 11.45 15.3498 11.45 13.8498C11.45 12.3498 12.65 11.1498 14.15 11.1498C15.65 11.1498 16.85 12.3498 16.85 13.8498C16.85 15.3498 15.65 16.5498 14.15 16.5498ZM22.65 10.3498C22.65 7.4998 20.35 5.1998 17.5 5.1998H10.75C7.9 5.1998 5.6 7.4998 5.6 10.3498V17.1498C5.6 19.9998 7.9 22.2998 10.75 22.2998H17.55C20.4 22.2998 22.7 19.9998 22.7 17.1498V10.3498H22.65ZM21.05 17.1498C21.05 19.0998 19.45 20.6998 17.5 20.6998H10.75C8.8 20.6998 7.2 19.0998 7.2 17.1498V10.3498C7.2 8.39981 8.8 6.7998 10.75 6.7998H17.55C19.5 6.7998 21.1 8.39981 21.1 10.3498V17.1498H21.05Z" fill="url(#paint0_linear)"/>
<defs>
<linearGradient id="paint0_linear" x1="14.05" y1="0.299805" x2="14.05" y2="27.4498" gradientUnits="userSpaceOnUse">
<stop stop-color="#9835A0"/>
<stop offset="0.5" stop-color="#CA3374"/>
<stop offset="1" stop-color="#F47836"/>
</linearGradient>
</defs>
</svg>
