<svg width="28" height="28" viewBox="0 0 28 28" fill="none" xmlns="http://www.w3.org/2000/svg">
<path d="M13.8502 27.7502C6.3502 27.7502 0.200195 21.6502 0.200195 14.1002C0.200195 6.6002 6.3002 0.450195 13.8502 0.450195C21.3502 0.450195 27.5002 6.5502 27.5002 14.1002C27.5002 21.6502 21.3502 27.7502 13.8502 27.7502Z" fill="#23A1EE"/>
<path d="M21.6998 9.1501C21.1998 9.4001 20.6498 9.5001 20.0998 9.6001C20.3498 9.5501 20.7498 9.1001 20.8998 8.9001C21.1498 8.6001 21.3498 8.3001 21.4498 7.9501C21.4498 7.9001 21.4498 7.9001 21.4498 7.8501C21.3998 7.8501 21.3998 7.8501 21.3498 7.8501C20.7498 8.2001 20.0998 8.4001 19.4498 8.6001C19.3998 8.6001 19.3498 8.6001 19.2998 8.5501C19.2498 8.5001 19.1998 8.4501 19.1498 8.4001C18.8498 8.1501 18.5498 7.9501 18.2498 7.8501C17.7998 7.6501 17.2998 7.6001 16.8498 7.6001C16.3998 7.6501 15.8998 7.7501 15.4998 8.0001C15.0998 8.2001 14.6998 8.5001 14.3998 8.9001C14.0998 9.3001 13.8498 9.7001 13.7498 10.2001C13.6498 10.6501 13.6498 11.1001 13.6998 11.5501C13.6998 11.6501 13.6998 11.6501 13.6498 11.6501C11.0498 11.2501 8.84981 10.3001 7.09981 8.3001C6.99981 8.2001 6.99981 8.2001 6.89981 8.3001C6.14981 9.4501 6.49981 11.3001 7.44981 12.2501C7.59981 12.3501 7.69981 12.5001 7.84981 12.6001C7.79981 12.6001 7.14981 12.5501 6.59981 12.2501C6.49981 12.2001 6.49981 12.2501 6.49981 12.3001C6.49981 12.4001 6.49981 12.5501 6.49981 12.7001C6.64981 13.8501 7.44981 14.9501 8.54981 15.4001C8.69981 15.4501 8.84981 15.5001 8.94981 15.5501C8.69981 15.6001 8.44981 15.6501 7.69981 15.6001C7.59981 15.6001 7.54981 15.6501 7.59981 15.7001C8.14981 17.2001 9.29981 17.6501 10.1998 17.9001C10.2998 17.9001 10.4498 17.9001 10.5498 17.9501C10.2498 18.4001 9.24981 18.7501 8.74981 18.9001C7.89981 19.2001 6.94981 19.3501 6.04981 19.2501C5.89981 19.2501 5.84981 19.2501 5.84981 19.2501C5.79981 19.2501 5.84981 19.3001 5.89981 19.3501C6.09981 19.4501 6.24981 19.6001 6.44981 19.7001C7.04981 20.0001 7.64981 20.2501 8.24981 20.4001C11.4998 21.3001 15.1498 20.6501 17.5998 18.2001C19.4998 16.3001 20.1998 13.6501 20.1998 11.0501C20.1998 10.9501 20.2998 10.9001 20.3998 10.8501C20.8998 10.5001 21.2998 10.0501 21.6498 9.5501C21.7498 9.4501 21.7498 9.3501 21.7498 9.3001C21.7498 9.1001 21.7498 9.1001 21.6998 9.1501Z" fill="white"/>
<path fill-rule="evenodd" clip-rule="evenodd" d="M11.0996 20.6502C11.0996 20.6002 11.3996 20.6502 11.0996 20.6502C11.0996 20.6002 11.1496 20.6502 11.0996 20.6502Z" fill="white"/>
</svg>
